<svg width="29" height="24" viewBox="0 0 29 24" fill="none" xmlns="http://www.w3.org/2000/svg">
<path d="M1.34135 20.8873L0.947795 20.3904L3.28897 18.5362L3.68252 19.0331L2.8098 19.7243L4.67394 22.078L4.07821 22.5498L2.21407 20.1961L1.34135 20.8873ZM5.93222 21.0814L3.67452 18.2308L5.59534 16.7095L5.98889 17.2064L4.67077 18.2504L5.20873 18.9296L6.42803 17.9639L6.82159 18.4608L5.60229 19.4265L6.14136 20.1072L7.46505 19.0588L7.8586 19.5557L5.93222 21.0814ZM6.63961 15.8825L7.98393 16.3987L8.0062 16.3811L7.81437 14.952L8.49501 14.413L8.75392 16.5273L10.7722 17.2481L10.079 17.7971L8.72386 17.2872L8.70159 17.3048L8.88756 18.7408L8.19718 19.2876L7.96054 17.1556L5.95619 16.4237L6.63961 15.8825ZM9.16137 14.6938L8.76782 14.1969L11.109 12.3427L11.5025 12.8396L10.6298 13.5308L12.494 15.8845L11.8982 16.3563L10.0341 14.0026L9.16137 14.6938ZM14.5974 10.9139C14.4974 10.8104 14.3805 10.7611 14.2468 10.7658C14.1131 10.7705 13.9739 10.8302 13.8291 10.9448C13.7308 11.0227 13.6588 11.1024 13.6131 11.1839C13.5666 11.2644 13.5444 11.3432 13.5465 11.4201C13.5494 11.4963 13.5752 11.565 13.6237 11.6262C13.6622 11.6787 13.7082 11.7148 13.7615 11.7345C13.8158 11.7534 13.8748 11.7603 13.9386 11.7551C14.0017 11.7489 14.0687 11.7343 14.1396 11.7114C14.2098 11.6875 14.2814 11.6579 14.3546 11.6226L14.6593 11.481C14.8056 11.4104 14.9492 11.3571 15.0899 11.3212C15.2305 11.2853 15.3657 11.271 15.4955 11.2785C15.6252 11.286 15.7473 11.3191 15.8619 11.3779C15.9773 11.436 16.0825 11.524 16.1775 11.6421C16.3148 11.8172 16.39 12.0038 16.4033 12.2016C16.4167 12.3979 16.3688 12.5966 16.2595 12.798C16.1504 12.9976 15.9798 13.1894 15.7478 13.3731C15.5177 13.5553 15.2893 13.6788 15.0627 13.7435C14.8371 13.8075 14.6217 13.8082 14.4166 13.7456C14.2117 13.6814 14.0258 13.5486 13.8587 13.3472L14.4419 12.8853C14.5241 12.9757 14.6147 13.0339 14.7136 13.0597C14.8128 13.0838 14.9161 13.0798 15.0234 13.0476C15.131 13.0137 15.2368 12.9556 15.3407 12.8733C15.4428 12.7925 15.5196 12.7075 15.5713 12.6182C15.6239 12.5283 15.6501 12.4403 15.6499 12.3544C15.6498 12.2684 15.6225 12.1911 15.5682 12.1224C15.5174 12.0584 15.4558 12.0196 15.3832 12.0061C15.3116 11.9919 15.2274 11.9982 15.1308 12.0249C15.0351 12.0508 14.9253 12.0925 14.8016 12.1497L14.4294 12.3176C14.1428 12.4495 13.8807 12.5084 13.643 12.4943C13.4053 12.4802 13.2035 12.3674 13.0376 12.1561C12.9 11.9842 12.8265 11.797 12.8171 11.5946C12.8087 11.3913 12.8575 11.1889 12.9635 10.9872C13.0695 10.7854 13.2264 10.6023 13.4343 10.4376C13.6458 10.2701 13.8591 10.16 14.0742 10.1074C14.2902 10.0542 14.4934 10.0571 14.6837 10.1163C14.874 10.1754 15.0378 10.2888 15.1751 10.4564L14.5974 10.9139ZM15.5728 8.80731L17.8305 11.6579L17.2278 12.1352L14.9701 9.28464L15.5728 8.80731ZM16.0687 8.41458L16.8119 7.8259L19.1139 9.11941L19.1473 9.09295L18.4154 6.55595L19.1587 5.96727L21.4164 8.81788L20.8318 9.28088L19.3623 7.42548L19.3386 7.44422L20.0594 9.86997L19.6613 10.1853L17.4596 8.92108L17.436 8.93982L18.911 10.8022L18.3264 11.2652L16.0687 8.41458ZM21.9129 8.4246L19.6552 5.57399L20.7799 4.68326C20.9961 4.51202 21.213 4.40743 21.4306 4.36949C21.6474 4.33062 21.8535 4.35243 22.0486 4.43491C22.244 4.51573 22.4167 4.65079 22.5666 4.84008C22.7165 5.02938 22.808 5.22875 22.841 5.43818C22.874 5.64761 22.8449 5.85406 22.7539 6.05752C22.6638 6.26025 22.5093 6.44833 22.2903 6.62177L21.5735 7.18951L21.1909 6.70652L21.8103 6.21595C21.9263 6.12409 22.0061 6.02844 22.0497 5.92901C22.0934 5.82792 22.1055 5.72695 22.0861 5.6261C22.0668 5.52359 22.02 5.42547 21.9458 5.33175C21.8709 5.2371 21.7864 5.16958 21.6925 5.12919C21.5988 5.08714 21.4985 5.07676 21.3915 5.09805C21.2838 5.11841 21.1715 5.17489 21.0546 5.26749L20.6482 5.58939L22.5156 7.94726L21.9129 8.4246ZM24.4507 6.41467L22.193 3.56406L22.7957 3.08673L24.6598 5.44042L25.8819 4.47252L26.2755 4.96943L24.4507 6.41467ZM26.6746 4.65332L24.4169 1.80272L26.3377 0.281416L26.7313 0.778323L25.4132 1.82229L25.9511 2.50153L27.1704 1.53584L27.564 2.03275L26.3447 2.99844L26.8838 3.67908L28.2074 2.6307L28.601 3.12761L26.6746 4.65332Z" fill="url(#paint0_linear_1_4)"/>
<defs>
<linearGradient id="paint0_linear_1_4" x1="-1.20737" y1="23.5469" x2="28.7348" y2="-0.16751" gradientUnits="userSpaceOnUse">
<stop stop-color="#C3D02A"/>
<stop offset="0.725" stop-color="#C260A1"/>
<stop offset="1" stop-color="#C235CE"/>
</linearGradient>
</defs>
</svg>
